<svg xmlns="http://www.w3.org/2000/svg" width="46" height="46" viewBox="0 0 46 46">
  <g id="Group_64220" data-name="Group 64220" transform="translate(-553 -404)">
    <circle id="Ellipse_493" data-name="Ellipse 493" cx="23" cy="23" r="23" transform="translate(553 404)" fill="#db4437"/>
    <path id="Icon_awesome-google" data-name="Icon awesome-google" d="M21.177,11.576c0,6.14-4.2,10.51-10.415,10.51a10.762,10.762,0,1,1,0-21.524,10.349,10.349,0,0,1,7.217,2.816L15.049,6.2c-3.832-3.7-10.957-.92-10.957,5.129a6.741,6.741,0,0,0,6.67,6.8,5.819,5.819,0,0,0,6.11-4.639h-6.11V9.78H21.008A9.435,9.435,0,0,1,21.177,11.576Z" transform="translate(565.568 415.676)" fill="#fff"/>
  </g>
</svg>
