<svg xmlns="http://www.w3.org/2000/svg" width="46" height="46" viewBox="0 0 46 46">
  <g id="Group_64218" data-name="Group 64218" transform="translate(-553 -404)">
    <circle id="Ellipse_493" data-name="Ellipse 493" cx="23" cy="23" r="23" transform="translate(553 404)" fill="#2266af"/>
    <path id="Icon_awesome-linkedin-in" data-name="Icon awesome-linkedin-in" d="M4.543,20.3H.335V6.746H4.543ZM2.437,4.9a2.448,2.448,0,1,1,2.437-2.46A2.457,2.457,0,0,1,2.437,4.9ZM20.291,20.3h-4.2V13.7c0-1.572-.032-3.588-2.188-3.588-2.188,0-2.523,1.708-2.523,3.475V20.3h-4.2V6.746h4.036V8.594h.059a4.421,4.421,0,0,1,3.981-2.188c4.259,0,5.041,2.8,5.041,6.447V20.3Z" transform="translate(566.093 415.093)" fill="#fff"/>
  </g>
</svg>
